<?xml version="1.0" encoding="utf-8"?>
<!-- Generator: Adobe Illustrator 22.1.0, SVG Export Plug-In . SVG Version: 6.00 Build 0)  -->
<svg version="1.1" id="Слой_1" xmlns="http://www.w3.org/2000/svg" xmlns:xlink="http://www.w3.org/1999/xlink" x="0px" y="0px"
	 viewBox="0 0 41.8 41.8" style="enable-background:new 0 0 41.8 41.8;" xml:space="preserve">
<style type="text/css">
	.st0{fill:#F5446D;}
</style>
<title>applicat-1</title>
<g>
	<g>
		<path class="st0" d="M33.5,0.7c-0.2-0.2-0.4-0.3-0.6-0.3H8.3C8,0.4,7.8,0.5,7.7,0.7C7.5,0.9,7.4,1.1,7.5,1.3l4.9,29.5v9.7v0.1
			c0,0.4,0.4,0.8,0.8,0.8H28c0.4,0,0.8-0.4,0.8-0.8v-0.1v-9.7l4.9-29.5C33.7,1.1,33.6,0.9,33.5,0.7z M26.4,2h1.9v2.6h-1.9V2z
			 M22.9,2h1.9v2.6h-1.9V2z M19.4,2h1.9v2.6h-1.9V2z M15.8,2h1.9v2.6h-1.9V2z M12.3,2h1.9v2.6h-1.9V2z M9.2,2h1.5v2.6H9.6L9.2,2z
			 M14.1,39.8c0.3-1.9,2-3.3,3.9-3.3h5.2c2,0,3.6,1.4,3.9,3.3H14.1z M27.3,29.9h-5.7c-0.4,0-0.8,0.4-0.8,0.8s0.4,0.8,0.8,0.8h5.6v5
			c-1-1-2.4-1.7-4-1.7H18c-1.6,0-3,0.6-4,1.7v-5h1.2c0.4,0,0.8-0.4,0.8-0.8s-0.4-0.8-0.8-0.8h-1.3l-4-23.8h21.3L27.3,29.9z
			 M31.5,4.6h-1.6V2h2L31.5,4.6z"/>
	</g>
</g>
<g>
	<g>
		<path class="st0" d="M20.3,10.2c-3.1,0-5.6,2.5-5.6,5.6s2.5,5.6,5.6,5.6s5.6-2.5,5.6-5.6S23.4,10.2,20.3,10.2z M20.3,19.8
			c-2.2,0-4-1.8-4-4s1.8-4,4-4s4,1.8,4,4S22.5,19.8,20.3,19.8z"/>
	</g>
</g>
<g>
	<g>
		<path class="st0" d="M19.1,30.6c0-0.1,0-0.1,0-0.2c0,0,0-0.1-0.1-0.1c0,0-0.1-0.1-0.1-0.1c0,0-0.1-0.1-0.1-0.1
			c0,0-0.1-0.1-0.1-0.1c0,0-0.1,0-0.1,0c-0.1,0-0.2,0-0.3,0c-0.1,0-0.1,0-0.1,0c0,0-0.1,0-0.1,0.1c0,0-0.1,0.1-0.1,0.1
			c0,0-0.1,0.1-0.1,0.1c0,0-0.1,0.1-0.1,0.1c0,0,0,0.1,0,0.2s0,0.1,0,0.2c0,0.1,0,0.1,0,0.2c0,0.1,0,0.1,0,0.1c0,0,0,0.1,0.1,0.1
			c0,0,0.1,0.1,0.1,0.1c0,0,0.1,0.1,0.1,0.1c0,0,0.1,0.1,0.1,0.1c0,0,0.1,0,0.1,0c0.1,0,0.1,0,0.2,0c0.1,0,0.1,0,0.2,0
			c0.1,0,0.1,0,0.1,0c0,0,0.1,0,0.1-0.1c0,0,0.1-0.1,0.1-0.1c0,0,0.1-0.1,0.1-0.1c0,0,0.1-0.1,0.1-0.1c0,0,0-0.1,0-0.1
			c0-0.1,0-0.1,0-0.2C19.2,30.7,19.2,30.6,19.1,30.6z"/>
	</g>
</g>
</svg>
