<?xml version="1.0" encoding="utf-8"?>
<!-- Generator: Adobe Illustrator 22.1.0, SVG Export Plug-In . SVG Version: 6.00 Build 0)  -->
<svg version="1.1" id="Слой_1" xmlns="http://www.w3.org/2000/svg" xmlns:xlink="http://www.w3.org/1999/xlink" x="0px" y="0px"
	 viewBox="0 0 233 188.9" style="enable-background:new 0 0 233 188.9;" xml:space="preserve">
<style type="text/css">
	.st0{fill:#F5446D;}
</style>
<title>applicat-2</title>
<path class="st0" d="M47.9,49.7c-0.2,0.2-0.5,0.3-0.8,0.3H27.5c-2.5,0-4.6,2.1-4.6,4.6v80.8c0,2.5,2.1,4.6,4.6,4.6h10.6
	c0.2,0,0.3,0,0.5,0.1c15.4,7.5,32.6,11.4,49.7,11.4h39.4c0.5,0,1,0.4,1.1,0.9c2.2,8.7,6.9,16.5,13.7,22.5
	c8.2,7.3,18.7,11.2,29.6,11.2c13.2,0,25.7-5.7,34.4-15.8c8.5-9.8,12.3-22.6,10.5-35.2l-4.2-29.4c-0.5-3.3-0.5-6.7,0-10l4.2-29.4
	c1.8-12.6-2-25.4-10.5-35.2c-8.7-10-21.2-15.8-34.4-15.8c-10.9,0-21.5,4-29.6,11.2c-6.7,6-11.5,13.8-13.7,22.5
	c-0.1,0.5-0.6,0.9-1.1,0.9H99.6c-0.5,0-0.9-0.3-1.1-0.7c-0.2-0.5,0-1,0.3-1.3l16.9-14.9c3.2-2.8,5.2-6.8,5.4-11.1
	c0.3-4.3-1.1-8.5-4-11.7c-5.9-6.7-16.1-7.3-22.8-1.5L47.9,49.7z M138.7,48.4c4.9-14.3,18.4-23.9,33.5-23.9
	c10.5,0,20.5,4.6,27.4,12.6c6.7,7.7,9.8,17.9,8.3,27.8l-4.2,29.4c-0.6,4.2-0.6,8.4,0,12.6l4.2,29.4c1.4,9.9-1.6,20.1-8.3,27.8
	c-6.9,8-16.9,12.6-27.4,12.6c-15.1,0-28.5-9.6-33.5-23.9c-0.1-0.4-0.1-0.7,0.2-1c0.2-0.3,0.6-0.5,0.9-0.5h15.4
	c8.9,0,16.2-7.2,16.2-16.2c0-2.1-0.4-4.1-1.1-6c-0.1-0.3-0.1-0.6,0-0.9c0.1-0.3,0.4-0.5,0.7-0.6c7-1.9,11.9-8.3,11.9-15.6
	c0-2-0.4-4-1.1-5.9c-0.1-0.3-0.1-0.6,0-0.9c0.1-0.3,0.4-0.5,0.7-0.6c7-1.9,11.9-8.3,11.9-15.6c0-7.3-4.9-13.7-11.9-15.6
	c-0.3-0.1-0.6-0.3-0.7-0.6c-0.1-0.3-0.2-0.6,0-0.9c0.8-1.9,1.1-3.9,1.1-6c0-8.9-7.2-16.2-16.2-16.2h-27c-0.4,0-0.7-0.2-0.9-0.5
	C138.6,49.2,138.6,48.8,138.7,48.4z M110.2,16.4c1.2,1.4,1.8,3.2,1.7,5c-0.1,1.8-0.9,3.5-2.3,4.8L92.7,41c-3.3,2.9-4.4,7.4-2.9,11.5
	c1.5,4.1,5.4,6.7,9.7,6.7h67.2c3.8,0,6.9,3.1,6.9,6.9c0,3.8-3.1,6.9-6.9,6.9h-46.5c-2.5,0-4.6,2.1-4.6,4.6c0,2.5,2.1,4.6,4.6,4.6
	h58.1c3.8,0,6.9,3.1,6.9,6.9c0,3.8-3.1,6.9-6.9,6.9h-58.1c-2.5,0-4.6,2.1-4.6,4.6c0,2.5,2.1,4.6,4.6,4.6h46.5c3.8,0,6.9,3.1,6.9,6.9
	c0,3.8-3.1,6.9-6.9,6.9h-46.5c-2.5,0-4.6,2.1-4.6,4.6s2.1,4.6,4.6,4.6h35c3.8,0,6.9,3.1,6.9,6.9c0,3.8-3.1,6.9-6.9,6.9H88.3
	c-16.2,0-32.4-3.8-46.8-11.1h0c-0.6-0.3-1.4-0.5-2.1-0.5h-6.2c-0.6,0-1.2-0.5-1.2-1.2V60.4c0-0.6,0.5-1.2,1.2-1.2h16
	c1.1,0,2.2-0.4,3-1.1l48.1-42.3C103.3,13.2,107.7,13.5,110.2,16.4z"/>
</svg>
