<svg xmlns="http://www.w3.org/2000/svg" viewBox="0 0 97 95.68"><defs><style>.cls-1{fill:#f5446d;}</style></defs><title>delivery-3</title><g id="Слой_2" data-name="Слой 2"><g id="Слой_1-2" data-name="Слой 1"><path class="cls-1" d="M38.29,69.21a5.39,5.39,0,0,1-5.37-5.37V14.9a5.39,5.39,0,0,1,5.37-5.37H85.37a5.39,5.39,0,0,1,5.37,5.37V63.84a5.39,5.39,0,0,1-5.37,5.37H38.29Zm0-55.68a1.37,1.37,0,0,0-1.37,1.37V63.84a1.37,1.37,0,0,0,1.37,1.37H85.37a1.37,1.37,0,0,0,1.37-1.37V14.9a1.37,1.37,0,0,0-1.37-1.37h-14V34.68a2,2,0,0,1-.4,1.2,2,2,0,0,1-2.8.4l-6.3-4.65-6.3,4.65a2,2,0,0,1-3.2-1.6V13.53ZM61.84,27.14a2,2,0,0,1,1.2.4l4.3,3.18V13.53h-11V30.72l4.3-3.18A2,2,0,0,1,61.84,27.14Z"/><circle class="cls-1" cx="19.78" cy="82.55" r="2.89"/><path class="cls-1" d="M19.77,95.68a13.18,13.18,0,0,1-7.09-24.3l.23-.15V13.74h-6A6.87,6.87,0,0,1,6.87,0h6.18a13.64,13.64,0,0,1,13.6,13.6V71.24l.23.15a13.19,13.19,0,0,1,4,4l.15.23h59.6a6.87,6.87,0,0,1-.5,13.72H31l-.15.23a13.27,13.27,0,0,1-4,4A13.14,13.14,0,0,1,19.77,95.68Zm0-22.4a9.2,9.2,0,1,0,9.2,9.2A9.21,9.21,0,0,0,19.78,73.28Zm13,6.91a12.33,12.33,0,0,1,0,4.56l-.11.59H90.13a2.87,2.87,0,1,0,0-5.74H32.65Zm-13-10.9a12.42,12.42,0,0,1,2.28.21l.59.11v-56A9.63,9.63,0,0,0,13.05,4H6.87a2.87,2.87,0,1,0,0,5.74h6.18a3.86,3.86,0,0,1,3.86,3.86v56l.59-.11A12.42,12.42,0,0,1,19.78,69.29Z"/></g></g></svg>