<svg xmlns="http://www.w3.org/2000/svg" viewBox="0 0 83.85 97.02"><defs><style>.cls-1{fill:#f5446d;}</style></defs><title>delivery-2</title><g id="Слой_2" data-name="Слой 2"><g id="Слой_1-2" data-name="Слой 1"><path class="cls-1" d="M25.93,76.41a7.16,7.16,0,1,1,6.77-9.48l.13.38.4,0A15.05,15.05,0,0,0,44.5,59.89l.35-.6-.68-.14A14.83,14.83,0,0,1,39.5,31.93l.24-.15V31.5A273.57,273.57,0,0,0,38,2.76,2,2,0,0,1,39.64.51,37.15,37.15,0,0,1,45.79,0h.14a37.89,37.89,0,0,1,6.43.58A2,2,0,0,1,54,2.3a295.67,295.67,0,0,1,1.69,29.94v.25l.21.15a14.89,14.89,0,0,1,6,9.72A14.8,14.8,0,0,1,49.48,59.28l-.28,0-.11.26a19,19,0,0,1-16,11.76l-.32,0-.11.3a7.15,7.15,0,0,1-6.27,4.74Zm-.19-10.29a3.15,3.15,0,1,0,2.57,5.23,3.15,3.15,0,0,0-2.36-5.24ZM46.95,33.81A10.82,10.82,0,1,0,58,44.64,10.83,10.83,0,0,0,47.17,33.8h-.23Zm.24-4a14.5,14.5,0,0,1,3.83.51l.64.18v-.67C51.5,21,51,11.41,50.24,4.69l0-.39-.39,0A33.11,33.11,0,0,0,45.93,4a24.89,24.89,0,0,0-3.27.14l-.49.06.05.49c.75,6.79,1.32,16.1,1.51,24.92v.6l.58-.12A14.55,14.55,0,0,1,47.18,29.81Z"/><path class="cls-1" d="M77.34,84.37a2,2,0,0,1-1.92-1.45L69.93,63.56a2,2,0,0,1,.48-1.94A33.83,33.83,0,0,0,79.83,36a34.5,34.5,0,0,0-18.27-28,2,2,0,0,1,.94-3.77,2,2,0,0,1,.93.23,38,38,0,0,1,10.79,59l-.18.21,5.22,18.27a2,2,0,0,1-1.38,2.47A2,2,0,0,1,77.34,84.37Z"/><path class="cls-1" d="M33.08,97a2,2,0,0,1-1.92-1.45l-2.48-8.7H16.24a8.51,8.51,0,0,1-8.5-8.5V66.08L3.86,64.8l-.34-.13L3,64.48A5.13,5.13,0,0,1,.45,57.7L6.39,44.37a15.31,15.31,0,0,0,1.35-6.31A38.51,38.51,0,0,1,29.37,3.73a2,2,0,0,1,.86-.2,2,2,0,0,1,.87,3.8A34.46,34.46,0,0,0,11.78,38.07,19.26,19.26,0,0,1,10.1,46l-6,13.38,0,.07a1.13,1.13,0,0,0,.72,1.44l5.59,1.85a2,2,0,0,1,1.37,1.9V78.36a4.5,4.5,0,0,0,4.5,4.5h14a2,2,0,0,1,1.92,1.45L35,94.47a2,2,0,0,1-1.38,2.47A2,2,0,0,1,33.08,97Z"/></g></g></svg>