<svg xmlns="http://www.w3.org/2000/svg" viewBox="0 0 96.25 92.23"><defs><style>.cls-1{fill:#f5446d;}</style></defs><title>delivery-1</title><g id="Слой_2" data-name="Слой 2"><g id="Слой_1-2" data-name="Слой 1"><path class="cls-1" d="M71.86,89.21A23.93,23.93,0,0,1,48.45,64.83V29.43A7.66,7.66,0,0,1,56,21.87h14.2v-2a15.6,15.6,0,1,0-31.2,0v7.89a14.4,14.4,0,1,1-28.79,0V4.85a2.13,2.13,0,0,1,4.25,0V27.74a10.15,10.15,0,1,0,20.29,0V19.85a19.85,19.85,0,1,1,39.7,0v2H88.69a7.66,7.66,0,0,1,7.56,7.57V64.82c0,.33,0,.65,0,1A24,24,0,0,1,72.36,89.22ZM52.7,64.82a19.65,19.65,0,1,0,39.3,0V45.17H52.7Zm21.77-23.9H92V29.43a3.37,3.37,0,0,0-3.31-3.31H74.47ZM56,26.12a3.37,3.37,0,0,0-3.31,3.31V40.92H70.22V26.12H56Z"/><path class="cls-1" d="M13.86,81.85A7.57,7.57,0,0,1,6.3,74.29V50.55a1.94,1.94,0,0,0-1.92-1.93H2.13a2.13,2.13,0,0,1,0-4.25H4.38a6.2,6.2,0,0,1,6.17,6.18v2.56H37.17a2.13,2.13,0,0,1,2.13,2.13V66a5.57,5.57,0,0,1-5.56,5.55H10.55v2.77a3.32,3.32,0,0,0,3.31,3.31H36.19a2.13,2.13,0,0,1,0,4.25ZM10.55,67.27H33.73A1.31,1.31,0,0,0,35,66v-8.6H10.55Z"/><circle class="cls-1" cx="15.5" cy="89.25" r="2.98"/><circle class="cls-1" cx="29.19" cy="89.25" r="2.98"/></g></g></svg>