<svg xmlns="http://www.w3.org/2000/svg" viewBox="0 0 95.52 97"><defs><style>.cls-1{fill:#f5446d;}</style></defs><title>delivery-4</title><g id="Слой_2" data-name="Слой 2"><g id="Слой_1-2" data-name="Слой 1"><path class="cls-1" d="M75.64,71.83a2,2,0,0,1,0-4h7.12a2,2,0,0,1,0,4Z"/><path class="cls-1" d="M75.64,82.06a2,2,0,0,1,0-4h7.12a2,2,0,0,1,0,4Z"/><path class="cls-1" d="M37.63,97a10,10,0,0,1-10-10V70.6H10.07A10.09,10.09,0,0,1,0,60.5V23.88A10.09,10.09,0,0,1,10.07,13.81H57.76A10.09,10.09,0,0,1,67.84,23.88V40.21H85.56a10,10,0,0,1,10,10V87a10,10,0,0,1-10,10H37.63Zm-6-10a6,6,0,0,0,6,6H85.56a6,6,0,0,0,6-6V57.19H67.84V60.5A10.1,10.1,0,0,1,57.76,70.6H31.67ZM10.07,17.81A6.09,6.09,0,0,0,4,23.88V60.5a6.09,6.09,0,0,0,6.07,6.1H57.76a6.08,6.08,0,0,0,6.07-6.1V23.88a6.09,6.09,0,0,0-6.07-6.07ZM67.84,53.2H91.52v-3a6,6,0,0,0-6-6H67.84Z"/><path class="cls-1" d="M13.37,58.18a2,2,0,0,1,0-4h7a2,2,0,0,1,0,4Z"/><path class="cls-1" d="M30.43,58.18a2,2,0,1,1,0-4h7a2,2,0,0,1,0,4Z"/><path class="cls-1" d="M47.49,58.18a2,2,0,0,1,0-4h7a2,2,0,0,1,0,4Z"/><path class="cls-1" d="M17.76,40.52a6.41,6.41,0,1,1,0-12.82h2.58a6.41,6.41,0,1,1,0,12.82Zm0-8.82a2.41,2.41,0,0,0,0,4.82h2.58a2.41,2.41,0,1,0,0-4.82Z"/><path class="cls-1" d="M82.78,36.12a2,2,0,0,1-2-2v-2l-.37-.1a8.61,8.61,0,0,1-5.67-5,2,2,0,0,1,3.69-1.53,4.67,4.67,0,0,0,4.32,2.86c2.26,0,4.7-1.29,4.7-4.13,0-.74,0-3-5.14-4.19-7.17-1.64-8.24-5.77-8.24-8.08a8,8,0,0,1,6.3-7.84L80.76,4V2a2,2,0,0,1,4,0V4l.37.1a8.61,8.61,0,0,1,5.67,5,2,2,0,0,1-1.87,2.7h0a2,2,0,0,1-1.82-1.17A4.66,4.66,0,0,0,82.8,7.77c-2.27,0-4.7,1.29-4.7,4.13,0,.75,0,3,5.13,4.19,7.17,1.64,8.24,5.77,8.24,8.08A8,8,0,0,1,85.17,32l-.39.09v2A2,2,0,0,1,82.78,36.12Z"/></g></g></svg>