<?xml version="1.0" encoding="utf-8"?>
<!-- Generator: Adobe Illustrator 22.1.0, SVG Export Plug-In . SVG Version: 6.00 Build 0)  -->
<svg version="1.1" id="Слой_1" xmlns="http://www.w3.org/2000/svg" xmlns:xlink="http://www.w3.org/1999/xlink" x="0px" y="0px"
	 viewBox="0 0 217.7 41.4" style="enable-background:new 0 0 217.7 41.4;" xml:space="preserve">
<style type="text/css">
	.st0{enable-background:new    ;}
	.st1{fill:#F4784D;}
	.st2{fill:#888889;}
</style>
<title>logo</title>
<g>
	<g class="st0">
		<path class="st1" d="M2.6,6.2h16.5V11H8.8v5.9h9.7v4.7H8.8v10.3H2.6V6.2z"/>
		<path class="st1" d="M23.7,6.2h6.1V27h10.7v4.9H23.7V6.2z"/>
		<path class="st1" d="M60.2,21h-9.9v6.1h11.1v4.8H44.2V6.2h16.6V11H50.3v5.3h9.9V21z"/>
		<path class="st1" d="M79.7,31.9l-2.4-4.7c-1-1.8-1.6-3.1-2.4-4.6h-0.1c-0.6,1.5-1.2,2.8-2.1,4.6l-2.2,4.7h-7l7.8-13L63.8,6.2h7
			l2.4,4.7c0.8,1.6,1.4,2.8,2,4.3h0.1c0.6-1.6,1.2-2.8,1.8-4.3l2.3-4.7h7l-7.6,12.5l8,13.1H79.7z"/>
		<path class="st1" d="M96.2,6.2V21c0,4.4,1.8,6.7,4.9,6.7c3.2,0,5-2.1,5-6.7V6.2h6.1v14.4c0,7.9-4.2,11.7-11.2,11.7
			C94,32.3,90,28.7,90,20.5V6.2H96.2z"/>
		<path class="st1" d="M140.2,22.1c-0.1-3.1-0.2-6.8-0.2-10.6h-0.1c-0.8,3.3-2,6.9-3,9.9l-3.3,10h-4.8l-2.9-9.9
			c-0.9-3-1.8-6.7-2.4-10h-0.1c-0.2,3.5-0.3,7.4-0.5,10.6l-0.5,9.8h-5.6l1.7-25.7h8.1l2.6,8.6c0.8,3,1.7,6.2,2.3,9.2h0.1
			c0.8-3,1.7-6.4,2.6-9.2l2.9-8.5h8l1.5,25.7h-6L140.2,22.1z"/>
	</g>
	<g class="st0">
		<path class="st2" d="M173.8,30.7c-1.9,0.6-5.4,1.4-9,1.4c-4.9,0-8.5-1.2-11-3.5c-2.5-2.2-3.8-5.6-3.8-9.3
			c0-8.5,6.6-13.4,15.4-13.4c3.5,0,6.2,0.6,7.5,1.3l-1.3,4.7c-1.5-0.6-3.3-1.1-6.3-1.1c-5.1,0-8.9,2.7-8.9,8.3
			c0,5.3,3.5,8.4,8.5,8.4c1.4,0,2.5-0.2,3-0.4v-5.4h-4.2v-4.5h10V30.7z"/>
		<path class="st2" d="M194.6,21h-9.9v6.1h11.1v4.8h-17.2V6.2h16.6V11h-10.5v5.3h9.9V21z"/>
		<path class="st2" d="M199.9,6.2h6.1V27h10.7v4.9h-16.8V6.2z"/>
	</g>
</g>
</svg>
